<svg width="450" height="199" viewBox="0 0 450 199" fill="none" xmlns="http://www.w3.org/2000/svg">
<path d="M289.068 51.1969H271.509V57.3743H228.232L228.341 119.733L346.74 121.585L348 25.2644C343.305 20.3743 335.862 13.8078 325.338 8.59357C309.99 0.989807 295.894 0.137741 288.171 0.258142C281.073 -0.343861 265.037 -0.668017 248.284 8.59357C238.73 13.8727 232.23 20.4577 228.232 25.2644C228.269 34.526 228.305 43.7876 228.341 53.0492H249.191V33.5998C253.986 30.0341 267.267 21.1708 286.358 20.6336C307.633 20.0409 322.546 30.1823 327.151 33.5998C326.851 55.2071 326.543 76.8237 326.244 98.431H247.378V77.1293H270.947V87.3171L288.116 87.4097L289.068 51.1969Z" fill="#B6A168"/>
<path d="M158.923 51.5012H176.482V57.6879H219.759L219.65 120.148L101.251 122L100 25.5224C104.696 20.623 112.138 14.0473 122.663 8.82379C138.01 1.21077 152.106 0.349441 159.83 0.469842C166.928 -0.132161 182.964 -0.456318 199.716 8.82379C209.271 14.1122 215.77 20.7064 219.768 25.5224C219.732 34.8025 219.695 44.0734 219.659 53.3535H198.809V33.8764C194.014 30.3014 180.734 21.4195 161.643 20.8916C140.367 20.2989 125.455 30.4589 120.85 33.8764C121.149 55.5207 121.457 77.1743 121.756 98.8186H200.622V77.4799H177.053V87.6862L159.884 87.7788L158.923 51.5012Z" fill="#B6A168"/>
<path d="M0.44 198V153.2H9.4V190.32H24.696V198H0.44ZM38.7925 178.8V190.32H56.6485V198H29.8325V153.2H56.6485V160.88H38.7925V171.12H52.8085V178.8H38.7925ZM83.7735 153.2L99.7735 198H90.9415L87.5495 188.336H70.7815L67.3895 198H58.5575L74.5575 153.2H83.7735ZM79.1015 164.464L73.4695 180.656H84.7975L79.2295 164.464H79.1015ZM138.227 198H128.37L118.77 181.104H113.202V198H104.242V153.2H128.498L135.923 157.488V176.816L128.498 181.104L138.227 198ZM113.202 160.88V173.424H126.962V160.88H113.202ZM153.845 169.008V198H144.885V153.2H153.269L172.597 182.192H172.725V153.2H181.685V198H173.301L153.973 169.008H153.845ZM190.652 198V153.2H199.612V198H190.652ZM217.505 169.008V198H208.545V153.2H216.929L236.257 182.192H236.385V153.2H245.345V198H236.961L217.633 169.008H217.505ZM270.312 182.32V174.64H286.632V194.032L279.208 198.32H261.096L253.672 194.032V157.168L261.096 152.88H279.208L286.632 157.168V166.32H277.672V160.56H262.632V190.64H277.672V182.32H270.312ZM325.66 182.32V174.64H341.98V194.032L334.556 198.32H316.444L309.02 194.032V157.168L316.444 152.88H334.556L341.98 157.168V166.32H333.02V160.56H317.98V190.64H333.02V182.32H325.66ZM371.038 153.2L387.038 198H378.206L374.814 188.336H358.046L354.654 198H345.822L361.822 153.2H371.038ZM366.366 164.464L360.734 180.656H372.062L366.494 164.464H366.366ZM405.536 160.88V198H396.576V160.88H384.48V153.2H417.632V160.88H405.536ZM431.735 178.8V190.32H449.591V198H422.775V153.2H449.591V160.88H431.735V171.12H445.751V178.8H431.735Z" fill="#B6A168"/>
</svg>
